<?xml version="1.0" encoding="UTF-8"?>
<!-- Created with Inkscape (http://www.inkscape.org/) -->
<svg width="246.06mm" height="31.75mm" version="1.1" viewBox="0 0 246.06 31.75" xmlns="http://www.w3.org/2000/svg">
 <g transform="translate(113.83 -79.625)">
  <path d="m-107.48 98.675h-6.35v-19.05h6.35zm6.35 0v-19.05h6.35v19.05zm12.7 0v-19.05h6.35v19.05zm-12.7 12.7h-6.35v-12.7h6.35zm12.7 0h-6.35v-12.7h6.35zm38.365-6.35v6.35h-25.4v-31.75h25.4v6.35h-19.05v6.35h12.7v6.35h-12.7v6.35zm12.965 0h12.7v6.35h-19.05v-31.75h19.05v6.35h-12.7v6.35h12.7v6.35h-12.7zm19.05-12.7h-6.35v-6.35h6.35zm0 12.7h-6.35v-6.35h6.35zm28.575 6.35h-6.35v-31.75h25.4v6.35h-19.05v6.35h12.7v6.35h-12.7zm32.015 0h-6.35v-31.75h6.35zm12.965-25.4v-6.35h19.05v6.35zm0 25.4v-6.35h-6.35v-19.05h6.35v19.05h12.7v-6.35h-6.35v-6.35h12.7v19.05zm32.015 0h-6.35v-31.75h6.35v12.7h12.7v-12.7h6.35v31.75h-6.35v-12.7h-12.7zm38.365 0h-6.35v-25.4h-6.35v-6.35h19.05v6.35h-6.35z" stroke-linejoin="round" fill="#000" stroke-width=".21167" aria-label="WEB FIGHT"/>
 </g>
</svg>
